<?xml version="1.0" encoding="UTF-8" standalone="no"?><!DOCTYPE svg PUBLIC "-//W3C//DTD SVG 1.1//EN" "http://www.w3.org/Graphics/SVG/1.1/DTD/svg11.dtd"><svg width="100%" height="100%" viewBox="0 0 3002 3002" version="1.1" xmlns="http://www.w3.org/2000/svg" xmlns:xlink="http://www.w3.org/1999/xlink" xml:space="preserve" xmlns:serif="http://www.serif.com/" style="fill-rule:evenodd;clip-rule:evenodd;stroke-linecap:round;stroke-miterlimit:1.5;"><circle cx="1500.9" cy="1500.9" r="1500" style="stroke:#000;stroke-width:1px;"/><g><path d="M611.239,1193.63l157.459,-0.001l-0,142.84l154.372,0l0,-142.84l152.104,-0l-0,144.965l-152.885,-0l-0,154.372l154.372,0l0,-153.357l152.885,-0l0,-145.981l10.512,0c10.315,0 20.199,-4.141 27.433,-11.495c14.655,-14.899 40.724,-41.4 60.94,-61.952c18.194,-18.496 43.053,-28.913 68.998,-28.913l1383.06,0c13.898,-0 25.404,10.803 26.278,24.674c5.882,89.994 -70.011,237.981 -251.737,258.034c-270.545,29.853 -509.166,162.114 -637.841,317.619c-72.724,87.888 -91.454,259.518 0,325.073c51.348,36.806 135.143,58.872 177.379,68.229c17.291,3.784 33.011,12.769 45.047,25.748c27.097,29.194 76.796,82.786 106.075,114.357c14.969,16.142 23.287,37.344 23.287,59.359c-0,35.664 -0,90.883 -0,124.192c-0,15.666 -12.7,28.365 -28.365,28.365c-56.785,0 -184.251,0 -245.88,0c-20.899,0 -40.827,-8.823 -54.875,-24.295c-94.112,-104.552 -205.253,-103.477 -348.049,-104.719c-147.476,-1.283 -259.236,-0.112 -355.75,112.828c-8.761,10.246 -21.567,16.144 -35.047,16.144c-58.906,0.042 -220.803,0.042 -289.09,0.042c-7.893,0 -15.412,-3.365 -20.669,-9.252c-5.258,-5.887 -7.756,-13.737 -6.868,-21.58c4.34,-38.309 11.626,-102.62 15.34,-135.406c1.521,-13.427 6.872,-26.134 15.414,-36.604c25.428,-31.169 81.159,-99.48 105.561,-129.391c7.617,-9.336 17.989,-16.026 29.635,-19.115c38.32,-10.3 128.704,-36.875 172.592,-68.902c82.685,-60.34 80.399,-215.504 -0,-271.776c-48.776,-34.137 -408.2,-15.674 -608.338,-81.513c-232.101,-76.355 -374.56,-277.678 -501.305,-427.402c-6.532,-7.594 -8.042,-18.298 -3.864,-27.403c4.178,-9.105 13.277,-14.941 23.295,-14.941c66.869,-0.001 186.808,-0.002 324.154,-0.003l0,145.869l154.373,0l-0,-145.869Zm308.418,300.958l-154.372,-0l0,154.372l154.372,0l0,-154.372Z" style="fill:#fff;stroke:#fff;stroke-width:1px;stroke-linejoin:round;"/><g><rect x="610.49" y="884.217" width="154.372" height="154.372" style="fill:#fff;stroke:#fff;stroke-width:1px;stroke-linejoin:round;"/><rect x="1021.2" y="980.763" width="154.372" height="154.372" style="fill:#fff;stroke:#fff;stroke-width:1px;stroke-linejoin:round;"/><rect x="638.149" y="566.844" width="154.372" height="154.372" style="fill:#fff;stroke:#fff;stroke-width:1px;stroke-linejoin:round;"/><rect x="422.478" y="707.623" width="154.372" height="154.372" style="fill:#fff;stroke:#fff;stroke-width:1px;stroke-linejoin:round;"/><rect x="820.253" y="794.201" width="154.372" height="154.372" style="fill:#fff;stroke:#fff;stroke-width:1px;stroke-linejoin:round;"/></g></g></svg>