<?xml version="1.0" encoding="UTF-8" standalone="no"?><!DOCTYPE svg PUBLIC "-//W3C//DTD SVG 1.1//EN" "http://www.w3.org/Graphics/SVG/1.1/DTD/svg11.dtd"><svg width="100%" height="100%" viewBox="0 0 4021 883" version="1.1" xmlns="http://www.w3.org/2000/svg" xmlns:xlink="http://www.w3.org/1999/xlink" xml:space="preserve" xmlns:serif="http://www.serif.com/" style="fill-rule:evenodd;clip-rule:evenodd;stroke-linejoin:round;stroke-miterlimit:2;"><g><g transform="matrix(2.55805,0,0,2.7357,-2899.36,-3856.72)"><text x="1644.81px" y="1729.34px" style="font-family:'SquadaOne-Regular', 'Squada One';font-size:356.539px;fill:#fff;stroke:#fff;stroke-width:0.5px;">P</text><text x="1803.82px" y="1729.34px" style="font-family:'SquadaOne-Regular', 'Squada One';font-size:274.431px;fill:#fff;stroke:#fff;stroke-width:0.5px;">IXL</text><text x="2093.07px" y="1729.34px" style="font-family:'SquadaOne-Regular', 'Squada One';font-size:356.539px;fill:#fff;stroke:#fff;stroke-width:0.5px;">F</text><text x="2226.42px" y="1729.34px" style="font-family:'SquadaOne-Regular', 'Squada One';font-size:274.431px;fill:#fff;stroke:#fff;stroke-width:0.5px;">ORGE</text></g></g><g><path d="M238.258,296.049l74.205,-0l0,67.315l72.75,0l0,-67.315l71.682,-0l-0,68.317l-72.05,-0l0,72.75l72.75,-0l0,-72.272l72.05,-0l-0,-68.796l4.953,0c4.862,0 9.52,-1.951 12.929,-5.417c6.906,-7.021 19.191,-19.51 28.718,-29.195c8.575,-8.717 20.29,-13.626 32.517,-13.626l651.786,-0c6.55,-0 11.972,5.09 12.384,11.628c2.772,42.41 -32.993,112.152 -118.635,121.602c-127.498,14.068 -239.951,76.399 -300.591,149.683c-34.273,41.418 -43.099,122.301 -0,153.195c24.198,17.346 63.688,27.744 83.592,32.154c8.149,1.783 15.557,6.017 21.229,12.134c12.77,13.758 36.191,39.014 49.989,53.893c7.055,7.607 10.975,17.598 10.975,27.973c-0,16.808 -0,42.83 -0,58.528c-0,7.382 -5.985,13.367 -13.368,13.367c-26.76,0 -86.831,0 -115.874,0c-9.849,0 -19.24,-4.158 -25.861,-11.45c-44.352,-49.271 -96.729,-48.765 -164.023,-49.35c-69.5,-0.604 -122.169,-0.053 -167.653,53.172c-4.128,4.828 -10.163,7.608 -16.516,7.608c-27.76,0.02 -104.057,0.02 -136.238,0.02c-3.72,0 -7.263,-1.586 -9.741,-4.36c-2.477,-2.775 -3.655,-6.474 -3.236,-10.17c2.045,-18.054 5.479,-48.361 7.229,-63.812c0.717,-6.328 3.239,-12.316 7.264,-17.25c11.984,-14.689 38.247,-46.882 49.747,-60.978c3.59,-4.399 8.478,-7.552 13.966,-9.008c18.059,-4.854 60.654,-17.378 81.337,-32.471c38.966,-28.436 37.889,-101.56 -0,-128.078c-22.986,-16.088 -192.371,-7.387 -286.688,-38.415c-109.381,-35.983 -176.517,-130.859 -236.248,-201.419c-3.078,-3.579 -3.789,-8.623 -1.821,-12.914c1.969,-4.291 6.258,-7.041 10.978,-7.041c31.514,-0.001 88.037,-0.001 152.763,-0.002l-0,68.743l72.75,0l0,-68.743Zm145.347,141.831l-72.75,-0l-0,72.75l72.75,0l0,-72.75Z" style="fill:#fff;stroke:#fff;stroke-width:1.33px;stroke-linecap:round;stroke-miterlimit:1.5;"/><g><rect x="237.905" y="150.234" width="72.75" height="72.75" style="fill:#fff;stroke:#fff;stroke-width:1.33px;stroke-linecap:round;stroke-miterlimit:1.5;"/><rect x="431.457" y="195.732" width="72.75" height="72.75" style="fill:#fff;stroke:#fff;stroke-width:1.33px;stroke-linecap:round;stroke-miterlimit:1.5;"/><rect x="250.94" y="0.667" width="72.75" height="72.75" style="fill:#fff;stroke:#fff;stroke-width:1.33px;stroke-linecap:round;stroke-miterlimit:1.5;"/><rect x="149.302" y="67.011" width="72.75" height="72.75" style="fill:#fff;stroke:#fff;stroke-width:1.33px;stroke-linecap:round;stroke-miterlimit:1.5;"/><rect x="336.759" y="107.812" width="72.75" height="72.75" style="fill:#fff;stroke:#fff;stroke-width:1.33px;stroke-linecap:round;stroke-miterlimit:1.5;"/></g></g></svg>