<?xml version="1.0" encoding="UTF-8" standalone="no"?><!DOCTYPE svg PUBLIC "-//W3C//DTD SVG 1.1//EN" "http://www.w3.org/Graphics/SVG/1.1/DTD/svg11.dtd"><svg width="100%" height="100%" viewBox="0 0 2814 4694" version="1.1" xmlns="http://www.w3.org/2000/svg" xmlns:xlink="http://www.w3.org/1999/xlink" xml:space="preserve" xmlns:serif="http://www.serif.com/" style="fill-rule:evenodd;clip-rule:evenodd;stroke-linecap:round;stroke-linejoin:round;stroke-miterlimit:1.5;"><g><path d="M1401.56,32.236l32.671,-21.125l48.31,1.622l59.126,41.723l79.149,65.385l90.159,69.9l80.872,67.181l43.179,39.628l42.962,53.012l47.667,57.767l34.697,70.048l19.59,57.915l15.311,67.398l8.914,66.965l4.107,52.145l3.113,48.874l0.901,53.336l-4.271,33.237l10.982,48.916l10.248,42.492l13.062,45.764l17.052,46.957l16.924,49.156l17.592,46.963l15.975,51.683l15.932,52.592l-0.785,48.946l-13.487,54.322l-27.497,62.524l-26.56,47.594l-50.96,82.781l-49.33,63.565l-48.166,46.548l-41.412,13.517l-45.339,-5.341l-55.502,-11.907l-55.215,-29.51l-34.34,-17.698l-32.666,-11.161l-37.148,0.887l-28.567,11.668l-35.871,28.904l-25.383,42.65l-15.986,30.098l-21.622,39.204l-30.788,50.003l-35.254,47.184l-18.613,-34.853l-25.586,-38.423l-21.276,-34.877l-37.8,-45.991l-27.729,-33.472l-37.322,-36.312l-32.636,-21.22l-42.807,-8.894l-51.934,19.643l-45.526,24.511c-15.474,12.513 -35.595,12.119 -52.994,19.228l-46.624,4.353l-47.636,-18.296l-29.093,-25.817l-26.707,-31.654l-34.14,-37.842l-39.692,-39.338l-42.39,-44.286l-30.765,-41.492c-14.504,-21.07 -27.398,-63.844 -21.324,-83.805l5.452,-31.413l13.847,-35.497l20.115,-38.686l17.198,-41.89l24.674,-60.532l17.013,-44.858l10.868,-40.183l16.83,-50.227l13.752,-45.229l10.558,-43.342l15.295,-56.468l13.434,-60.616l14.612,-54.483l9.144,-78.14l1.328,-84.936l9.674,-60.903l26.764,-73.611l40.325,-74.721l40.774,-53.949l36.978,-47.269l32.537,-32.988l40.013,-41.133l47.413,-43.79l44.351,-37.22l45.616,-29.328l44.12,-27l30.458,-14.365l28.76,-7.757l28.345,15.059Z" style="stroke:#fff;stroke-width:22.22px;"/><path d="M1433.99,762.509l-59.153,25.454l-91.014,34.418l-84.728,36.755c-28.691,12.34 -55.371,25.718 -78.8,40.775c-26.583,5.701 -122.021,100.314 -118.705,103.499l-43.557,61.519l-29.116,62.464l-22.614,61.559l-12.68,54.011l-10.206,67.307l-5.052,62.826l-1.596,60.186l0.603,57.737l11.171,48.617l14.144,55.729l7.846,29.212l54.703,23.803l39.405,0.258l43.648,-11.299l39.517,-19.226c14.608,-10.338 29.148,-17.929 43.617,-22.642l36.841,-12.044l32.885,2.697l33.686,16.026l32.824,31.54l32.108,33.777l31.061,40.054l37.383,51.739l45.845,77.013l37.069,-51.929l27.332,-44.914l32.186,-49.482l22.616,-45.658l29.895,-37.35l22.975,-12.473c17.608,-8.547 36.962,-17.01 58.151,-8.045c18.74,2.597 33.162,8.444 44.224,16.822l43.787,23.655l40.771,16.09l39.191,13.074l40.782,4.006l37.93,-3.779l29.282,-15.03l18.292,-32.164l10.669,-42.592l11.349,-58.065l3.87,-57.191l-2.658,-44.163l-2.959,-52.443l-12.144,-45.073l-9.466,-37.419l-17.816,-54.824l-19.69,-41.955l-25.782,-51.81l-19.911,-38.319l-22.394,-53.364l-46.438,-88.421l-46.073,-72.726l-45.539,-60.994l-49.817,-57.074l-47.38,-45.563l-51.201,-47.889l-39.933,-23.151c-12.062,-0.736 -14.624,14.689 -10.134,33.583c7.425,8.917 9.154,22.777 5.786,41.057c-3.823,14.183 -10.831,24.363 -21.176,30.347c-11.155,6.233 -37.084,20.256 -45.712,21.462Z" style="stroke:#fff;stroke-width:22.22px;"/><path d="M977.031,1253.3l35.173,76.451l41.049,68.135l44.12,54.697l47.155,45.286l43.802,45.257l36.909,31.706l40.668,41.206l52.356,61.659l35.747,45.063l26.334,40.196l25.081,44.228l11.627,21.041l26.656,-38.779l31.948,-53.729l34.22,-68.675l32.409,-62.963l31.895,-45.611l52.713,-59.372l46.788,-40.699l45.01,-39.614l51.874,-45.729l43.34,-46.337l23.726,-43.417" style="stroke:#fff;stroke-width:22.22px;"/><g><path d="M1414.27,1863.06l46.47,-70.911l33.087,-54.651l24.621,-44.175l33.089,-45.593l43.709,-37.239l38.293,-6.95l32.309,9.343l40.037,14.662l33.764,14.661l35.885,19.64l39.916,13.48l45.463,4.478l37.673,-6.365l28.642,-13.479l31.642,-29.687l25.822,-28.392l15.81,-27.343l32.685,-40.225l18.293,-37.341l22.475,-42.897l29.264,-42.836l19.051,-30.715l31.877,3.682l31.52,8.615l34.794,12.184l27.49,9.707l35.643,16.775l22.64,13.139l39.765,30.869l27.611,20.208l35.067,13.844l32.43,11.115l31.713,14.486l35.679,22.811l30.35,10.407l27.652,20.788l27.816,23.591l21.348,35.362l14.07,42.21l19.822,59.586l15.5,51.983l13.192,45.013l15.5,60.854l14.98,37.262l7.116,39.944l10.919,39.164l13.842,56.296l5.719,40.675l8.254,59.221l8.481,39.554l11.958,52.226l11.275,74.916l9.034,58.197l-1.268,54.006l8.485,120.49l-1.232,73.361l-9.113,90.167l-18.753,90.663l-41.292,122.985l-11.842,66.098l-18.08,178.351c0,0 -49.304,125.548 -46.48,258.62c7.546,355.634 115.465,1024.42 -61.875,1045.47c-152.559,18.106 1.916,-1030.68 -147.599,-1004.45c-118.895,20.858 85.108,743.329 -59.228,768.652c-143.075,25.101 18.358,-445.362 -123.35,-449.919c-128.707,-4.139 60.875,566.118 -104.487,570.747c-186.963,5.234 73.64,-714.804 -143.865,-787.559c-124.281,-41.572 36.636,432.101 -108.101,435.607c-148.294,3.591 14.548,-436.512 -125.067,-433.131c-151.691,3.674 94.126,954.654 -121.396,959.874c-178.334,4.319 108.249,-936.176 -147.892,-952.425c-164.69,-10.448 33.635,1076.76 -129.642,1066.4c-156.952,-9.957 2.406,-1087.16 -116.083,-1094.68c-194.224,-12.321 35.076,718.366 -159.057,718.412c-151.139,0.035 35.835,-642.491 -109.921,-616.462c-111.316,19.879 66.574,925.619 -66.912,991.371c-142.189,70.04 -17.073,-678.463 -105.965,-659.813c-132.722,27.847 29.861,562.251 -85.967,555.667c-205.05,-11.657 38.604,-815.858 -110.479,-795.144c-124.252,17.264 31.98,529.366 -110.624,530.943c-132.501,1.465 10.101,-859.113 -112.732,-848.441c-166.342,14.452 91.683,990.619 -128.296,1009.73c-127.7,11.095 -12.544,-947.885 -86.073,-1128.78l-77.427,-244.154l-21.729,-107.993l-21.286,-77.686l-42.279,-166.357l-14.011,-68.69l-3.294,-92.802l1.721,-103.2l7.128,-112.012l14.207,-126.022l11.897,-118.906l29.791,-98.37l37.854,-124.474l13.788,-52.286l13.224,-55.047l25.564,-78.645l23.646,-66.145l33.232,-52.577l35.346,-25.514l59.337,-29.717l58.206,-19.947l55.354,-26.473l47.833,-19.726l52.602,-24.555l61.303,-25.92l57.201,-22.744l44.161,1.827l26.159,35.112l33.912,36.728l36.905,44.751l49.191,53.102l47.893,51.1l59.171,40.444l62.755,1.582l65.209,-21.886l47.405,-26.167l58.184,-20.908l63.142,30.457l46.668,50.116l44.198,58.844l31.332,45.141l47.636,80.752Z" style="stroke:#fff;stroke-width:22.22px;"/><path d="M1917.82,4175.74c-31.295,31.851 -72.599,176.582 8.693,173.072c83.286,-3.596 16.81,-151.53 -8.693,-173.072Z" style="stroke:#fff;stroke-width:22.22px;"/><path d="M1127.41,4425.66c-34.712,33.031 -80.527,183.119 9.643,179.478c92.38,-3.729 18.645,-157.138 -9.643,-179.478Z" style="stroke:#fff;stroke-width:22.22px;"/></g></g><g><text x="326.968px" y="3012.09px" style="font-family:'BerkshireSwash-Regular', 'Berkshire Swash';font-size:611.111px;fill:#fff;">Print C<tspan x="2169.25px " y="3012.09px ">o</tspan></text><text x="625.81px" y="2422.51px" style="font-family:'BerkshireSwash-Regular', 'Berkshire Swash';font-size:611.111px;fill:#fff;">Shady</text></g></svg>